<svg width="32" height="33" viewBox="0 0 32 33" fill="none" xmlns="http://www.w3.org/2000/svg">
<path d="M30 26.3642H28.5V12.8642C28.5 12.2012 28.2366 11.5653 27.7678 11.0964C27.2989 10.6276 26.663 10.3642 26 10.3642H21.5V4.86421C21.4998 4.44395 21.3938 4.03052 21.1915 3.66212C20.9893 3.29372 20.6975 2.98224 20.343 2.75648C19.9885 2.53072 19.5829 2.39796 19.1635 2.37047C18.7442 2.34298 18.3247 2.42165 17.9438 2.59921L4.94375 8.66671C4.51288 8.86855 4.14834 9.18883 3.89269 9.59012C3.63704 9.99141 3.50084 10.4572 3.5 10.933V26.3642H2C1.60218 26.3642 1.22064 26.5222 0.93934 26.8035C0.658035 27.0849 0.5 27.4664 0.5 27.8642C0.5 28.262 0.658035 28.6436 0.93934 28.9249C1.22064 29.2062 1.60218 29.3642 2 29.3642H30C30.3978 29.3642 30.7794 29.2062 31.0607 28.9249C31.342 28.6436 31.5 28.262 31.5 27.8642C31.5 27.4664 31.342 27.0849 31.0607 26.8035C30.7794 26.5222 30.3978 26.3642 30 26.3642ZM25.5 13.3642V26.3642H21.5V13.3642H25.5ZM6.5 11.2505L18.5 5.65171V26.3642H6.5V11.2505ZM16.5 14.8642V16.3642C16.5 16.762 16.342 17.1436 16.0607 17.4249C15.7794 17.7062 15.3978 17.8642 15 17.8642C14.6022 17.8642 14.2206 17.7062 13.9393 17.4249C13.658 17.1436 13.5 16.762 13.5 16.3642V14.8642C13.5 14.4664 13.658 14.0848 13.9393 13.8035C14.2206 13.5222 14.6022 13.3642 15 13.3642C15.3978 13.3642 15.7794 13.5222 16.0607 13.8035C16.342 14.0848 16.5 14.4664 16.5 14.8642ZM11.5 14.8642V16.3642C11.5 16.762 11.342 17.1436 11.0607 17.4249C10.7794 17.7062 10.3978 17.8642 10 17.8642C9.60218 17.8642 9.22064 17.7062 8.93934 17.4249C8.65804 17.1436 8.5 16.762 8.5 16.3642V14.8642C8.5 14.4664 8.65804 14.0848 8.93934 13.8035C9.22064 13.5222 9.60218 13.3642 10 13.3642C10.3978 13.3642 10.7794 13.5222 11.0607 13.8035C11.342 14.0848 11.5 14.4664 11.5 14.8642ZM11.5 21.3642V22.8642C11.5 23.262 11.342 23.6436 11.0607 23.9249C10.7794 24.2062 10.3978 24.3642 10 24.3642C9.60218 24.3642 9.22064 24.2062 8.93934 23.9249C8.65804 23.6436 8.5 23.262 8.5 22.8642V21.3642C8.5 20.9664 8.65804 20.5849 8.93934 20.3035C9.22064 20.0222 9.60218 19.8642 10 19.8642C10.3978 19.8642 10.7794 20.0222 11.0607 20.3035C11.342 20.5849 11.5 20.9664 11.5 21.3642ZM16.5 21.3642V22.8642C16.5 23.262 16.342 23.6436 16.0607 23.9249C15.7794 24.2062 15.3978 24.3642 15 24.3642C14.6022 24.3642 14.2206 24.2062 13.9393 23.9249C13.658 23.6436 13.5 23.262 13.5 22.8642V21.3642C13.5 20.9664 13.658 20.5849 13.9393 20.3035C14.2206 20.0222 14.6022 19.8642 15 19.8642C15.3978 19.8642 15.7794 20.0222 16.0607 20.3035C16.342 20.5849 16.5 20.9664 16.5 21.3642Z" fill="#99A2AD"/>
</svg>
