<svg width="10" height="11" viewBox="0 0 10 11" fill="none" xmlns="http://www.w3.org/2000/svg">
<path d="M4.875 0.489258C7.56675 0.489258 9.75 2.67176 9.75 5.36426C9.75 8.05676 7.56675 10.2393 4.875 10.2393C2.1825 10.2393 0 8.05676 0 5.36426C0 2.67176 2.1825 0.489258 4.875 0.489258ZM4.875 1.61426C2.80382 1.61426 1.125 3.29308 1.125 5.36426C1.125 7.43544 2.80382 9.11426 4.875 9.11426C6.94572 9.11426 8.625 7.43515 8.625 5.36426C8.625 3.29336 6.94572 1.61426 4.875 1.61426ZM4.55269 2.87426C4.86335 2.87426 5.11519 3.1261 5.11519 3.43676V5.24357L6.89756 5.84696C7.19181 5.94657 7.3496 6.26587 7.24999 6.56013C7.15037 6.85438 6.83107 7.01217 6.53682 6.91256L4.37232 6.17981C4.1439 6.10248 3.99019 5.88816 3.99019 5.64701V3.43676C3.99019 3.1261 4.24203 2.87426 4.55269 2.87426Z" fill="#99A2AD"/>
</svg>
