<svg width="32" height="33" viewBox="0 0 32 33" fill="none" xmlns="http://www.w3.org/2000/svg">
<path d="M22.667 8.86422V7.53088C22.667 5.26422 20.9337 3.53088 18.667 3.53088H13.3337C11.067 3.53088 9.33366 5.26422 9.33366 7.53088V8.86422H2.66699V14.1976C2.66699 16.4642 4.40033 18.1976 6.66699 18.1976H25.3337C27.6003 18.1976 29.3337 16.4642 29.3337 14.1976V8.86422H22.667ZM12.0003 7.53088C12.0003 6.73088 12.5337 6.19755 13.3337 6.19755H18.667C19.467 6.19755 20.0003 6.73088 20.0003 7.53088V8.86422H12.0003V7.53088ZM25.3337 19.5309C26.9337 19.5309 28.4003 18.8642 29.3337 17.6642V23.5309C29.3337 25.7976 27.6003 27.5309 25.3337 27.5309H6.66699C4.40033 27.5309 2.66699 25.7976 2.66699 23.5309V17.6642C3.60033 18.8642 5.06699 19.5309 6.66699 19.5309H25.3337Z" fill="#99A2AD"/>
</svg>
