<svg width="32" height="33" viewBox="0 0 32 33" fill="none" xmlns="http://www.w3.org/2000/svg">
<path d="M22.5002 29.8643C22.5002 30.2621 22.3421 30.6436 22.0608 30.9249C21.7795 31.2062 21.398 31.3643 21.0002 31.3643H11.0002C10.6023 31.3643 10.2208 31.2062 9.93951 30.9249C9.6582 30.6436 9.50017 30.2621 9.50017 29.8643C9.50017 29.4665 9.6582 29.0849 9.93951 28.8036C10.2208 28.5223 10.6023 28.3643 11.0002 28.3643H21.0002C21.398 28.3643 21.7795 28.5223 22.0608 28.8036C22.3421 29.0849 22.5002 29.4665 22.5002 29.8643ZM27.5002 13.8643C27.5047 15.607 27.111 17.3278 26.3491 18.8951C25.5872 20.4625 24.4772 21.8351 23.1039 22.908C22.9179 23.0497 22.7668 23.2321 22.6622 23.4412C22.5575 23.6502 22.5021 23.8805 22.5002 24.1143V24.3643C22.5002 25.0273 22.2368 25.6632 21.7679 26.132C21.2991 26.6009 20.6632 26.8643 20.0002 26.8643H12.0002C11.3371 26.8643 10.7012 26.6009 10.2324 26.132C9.76356 25.6632 9.50017 25.0273 9.50017 24.3643V24.1143C9.4999 23.8844 9.44677 23.6576 9.34491 23.4515C9.24304 23.2453 9.09515 23.0654 8.91267 22.9255C7.54313 21.8588 6.43417 20.4945 5.66971 18.9359C4.90524 17.3773 4.50531 15.6652 4.50017 13.9293C4.46642 7.70053 9.50017 2.51428 15.7239 2.36428C17.2572 2.32744 18.7824 2.59767 20.2097 3.15908C21.6369 3.7205 22.9375 4.56174 24.0348 5.6333C25.1321 6.70487 26.004 7.9851 26.5991 9.39866C27.1943 10.8122 27.5006 12.3306 27.5002 13.8643ZM24.5002 13.8643C24.5005 12.7305 24.274 11.6081 23.834 10.5631C23.394 9.51817 22.7494 8.57182 21.9381 7.77976C21.1268 6.98771 20.1653 6.36596 19.1101 5.95113C18.0549 5.5363 16.9274 5.33677 15.7939 5.36428C11.1952 5.47428 7.47517 9.30803 7.50017 13.9118C7.50445 15.1948 7.80039 16.4601 8.36559 17.6119C8.93079 18.7638 9.75048 19.7721 10.7627 20.5605C11.2726 20.9541 11.6917 21.4529 11.9916 22.023C12.2914 22.5931 12.4649 23.2211 12.5002 23.8643H19.5127C19.5487 23.2199 19.7224 22.5906 20.0221 22.019C20.3218 21.4474 20.7406 20.9466 21.2502 20.5505C22.2653 19.7571 23.0857 18.7423 23.649 17.5835C24.2122 16.4248 24.5033 15.1527 24.5002 13.8643ZM21.9914 13.1993C21.8587 12.0769 21.4149 11.014 20.7101 10.1305C20.0053 9.24695 19.0675 8.57806 18.0027 8.19928C17.6305 8.07767 17.2255 8.10642 16.8742 8.27938C16.5229 8.45234 16.2532 8.75581 16.1226 9.12496C15.9921 9.4941 16.011 9.89967 16.1755 10.255C16.3399 10.6104 16.6368 10.8874 17.0027 11.0268C17.5378 11.2143 18.0097 11.5479 18.3652 11.9897C18.7206 12.4315 18.9453 12.9639 19.0139 13.5268C19.0577 13.9223 19.2568 14.2842 19.5674 14.5329C19.7212 14.6561 19.8977 14.7477 20.0869 14.8027C20.2762 14.8576 20.4743 14.8747 20.6702 14.853C20.866 14.8314 21.0557 14.7713 21.2283 14.6764C21.4009 14.5814 21.5532 14.4534 21.6763 14.2996C21.7995 14.1458 21.8911 13.9692 21.946 13.78C22.001 13.5908 22.0181 13.3926 21.9964 13.1968L21.9914 13.1993Z" fill="#99A2AD"/>
</svg>
