<svg width="32" height="33" viewBox="0 0 32 33" fill="none" xmlns="http://www.w3.org/2000/svg">
<path d="M28.4999 16.8642C28.4999 17.2621 28.3419 17.6436 28.0606 17.9249C27.7793 18.2062 27.3978 18.3642 26.9999 18.3642H15.9999C15.6021 18.3642 15.2206 18.2062 14.9393 17.9249C14.658 17.6436 14.4999 17.2621 14.4999 16.8642C14.4999 16.4664 14.658 16.0849 14.9393 15.8036C15.2206 15.5223 15.6021 15.3642 15.9999 15.3642H26.9999C27.3978 15.3642 27.7793 15.5223 28.0606 15.8036C28.3419 16.0849 28.4999 16.4664 28.4999 16.8642ZM15.9999 10.3642H26.9999C27.3978 10.3642 27.7793 10.2062 28.0606 9.92489C28.3419 9.64359 28.4999 9.26206 28.4999 8.86423C28.4999 8.46641 28.3419 8.08488 28.0606 7.80357C27.7793 7.52227 27.3978 7.36423 26.9999 7.36423H15.9999C15.6021 7.36423 15.2206 7.52227 14.9393 7.80357C14.658 8.08488 14.4999 8.46641 14.4999 8.86423C14.4999 9.26206 14.658 9.64359 14.9393 9.92489C15.2206 10.2062 15.6021 10.3642 15.9999 10.3642ZM26.9999 23.3642H15.9999C15.6021 23.3642 15.2206 23.5223 14.9393 23.8036C14.658 24.0849 14.4999 24.4664 14.4999 24.8642C14.4999 25.2621 14.658 25.6436 14.9393 25.9249C15.2206 26.2062 15.6021 26.3642 15.9999 26.3642H26.9999C27.3978 26.3642 27.7793 26.2062 28.0606 25.9249C28.3419 25.6436 28.4999 25.2621 28.4999 24.8642C28.4999 24.4664 28.3419 24.0849 28.0606 23.8036C27.7793 23.5223 27.3978 23.3642 26.9999 23.3642ZM9.9387 5.80298L6.99995 8.73923L6.0612 7.79923C5.7794 7.51744 5.39721 7.35913 4.9987 7.35913C4.60018 7.35913 4.21799 7.51744 3.9362 7.79923C3.6544 8.08103 3.49609 8.46322 3.49609 8.86173C3.49609 9.26025 3.6544 9.64244 3.9362 9.92423L5.9362 11.9242C6.07555 12.0641 6.24114 12.175 6.42347 12.2507C6.6058 12.3264 6.80127 12.3654 6.9987 12.3654C7.19612 12.3654 7.3916 12.3264 7.57392 12.2507C7.75625 12.175 7.92184 12.0641 8.0612 11.9242L12.0612 7.92423C12.343 7.64244 12.5013 7.26025 12.5013 6.86173C12.5013 6.46322 12.343 6.08103 12.0612 5.79923C11.7794 5.51744 11.3972 5.35913 10.9987 5.35913C10.6002 5.35913 10.218 5.51744 9.9362 5.79923L9.9387 5.80298ZM9.9387 13.803L6.99995 16.7392L6.0612 15.7992C5.7794 15.5174 5.39721 15.3591 4.9987 15.3591C4.60018 15.3591 4.21799 15.5174 3.9362 15.7992C3.6544 16.081 3.49609 16.4632 3.49609 16.8617C3.49609 17.2602 3.6544 17.6424 3.9362 17.9242L5.9362 19.9242C6.07555 20.0641 6.24114 20.175 6.42347 20.2507C6.6058 20.3264 6.80127 20.3654 6.9987 20.3654C7.19612 20.3654 7.3916 20.3264 7.57392 20.2507C7.75625 20.175 7.92184 20.0641 8.0612 19.9242L12.0612 15.9242C12.343 15.6424 12.5013 15.2602 12.5013 14.8617C12.5013 14.4632 12.343 14.081 12.0612 13.7992C11.7794 13.5174 11.3972 13.3591 10.9987 13.3591C10.6002 13.3591 10.218 13.5174 9.9362 13.7992L9.9387 13.803ZM9.9387 21.803L6.99995 24.7392L6.0612 23.7992C5.92167 23.6597 5.75602 23.549 5.57372 23.4735C5.39141 23.398 5.19602 23.3591 4.9987 23.3591C4.80137 23.3591 4.60598 23.398 4.42367 23.4735C4.24137 23.549 4.07573 23.6597 3.9362 23.7992C3.79667 23.9388 3.68599 24.1044 3.61047 24.2867C3.53496 24.469 3.49609 24.6644 3.49609 24.8617C3.49609 25.0591 3.53496 25.2544 3.61047 25.4368C3.68599 25.6191 3.79667 25.7847 3.9362 25.9242L5.9362 27.9242C6.07555 28.0641 6.24114 28.175 6.42347 28.2507C6.6058 28.3264 6.80127 28.3654 6.9987 28.3654C7.19612 28.3654 7.3916 28.3264 7.57392 28.2507C7.75625 28.175 7.92184 28.0641 8.0612 27.9242L12.0612 23.9242C12.343 23.6424 12.5013 23.2602 12.5013 22.8617C12.5013 22.4632 12.343 22.081 12.0612 21.7992C11.7794 21.5174 11.3972 21.3591 10.9987 21.3591C10.6002 21.3591 10.218 21.5174 9.9362 21.7992L9.9387 21.803Z" fill="#99A2AD"/>
</svg>
