<svg width="32" height="33" viewBox="0 0 32 33" fill="none" xmlns="http://www.w3.org/2000/svg">
<path d="M9.41112 18.4373C14.4297 18.4373 18.8222 20.3733 18.8222 24.6303C18.8222 26.8633 17.9547 27.8643 16.1318 27.8643H2.69046C0.856555 27.8643 0 26.8633 0 24.6303C0 20.3733 4.39259 18.4373 9.41112 18.4373ZM19.0528 19.7683C18.965 19.0753 19.4482 18.4483 20.14 18.3603C20.8428 18.2723 21.8531 18.2173 22.5889 18.2723C27.5855 18.6903 32 20.3733 32 24.6303C32 26.8633 31.1325 27.8643 29.3095 27.8643H21.9629C21.2711 27.8643 20.7111 27.3033 20.7111 26.6103L20.766 24.7953C20.7879 23.8383 20.6452 22.8923 20.3377 22.0013C20.1949 21.5833 19.9753 21.2093 19.7447 20.8353L19.0638 19.7683H19.0528ZM22.5889 5.86426C25.5319 5.86426 27.9259 8.25126 27.9259 11.2103C27.9259 14.1693 25.5429 16.5563 22.5889 16.5563C19.6349 16.5563 17.2519 14.1693 17.2519 11.2103C17.2519 8.25126 19.6458 5.86426 22.5889 5.86426ZM9.41112 5.86426C12.3542 5.86426 14.7481 8.25126 14.7481 11.2103C14.7481 14.1693 12.3651 16.5563 9.41112 16.5563C6.4571 16.5563 4.07413 14.1583 4.07413 11.2103C4.07413 8.26226 6.46808 5.86426 9.41112 5.86426Z" fill="#99A2AD"/>
</svg>
